<svg width="60" height="60" viewBox="0 0 60 60" fill="none" xmlns="http://www.w3.org/2000/svg">
    <rect width="60" height="60" fill="#25274D"/>
    <path fill-rule="evenodd" clip-rule="evenodd" d="M40 20L54 17V40L40 37V20Z" fill="#29648A"/>
    <path fill-rule="evenodd" clip-rule="evenodd" d="M54.6287 16.2223C54.8635 16.4122 55 16.698 55 17V40C55 40.302 54.8635 40.5878 54.6287 40.7777C54.3938 40.9675 54.0858 41.0411 53.7905 40.9778L39.7905 37.9778C39.3294 37.879 39 37.4715 39 37V20C39 19.5285 39.3294 19.121 39.7905 19.0222L53.7905 16.0222C54.0858 15.9589 54.3938 16.0325 54.6287 16.2223ZM41 20.8084V36.1916L53 38.763V18.237L41 20.8084Z" fill="#AAABB8"/>
    <path d="M31 20C34.866 20 38 16.866 38 13C38 9.13401 34.866 6 31 6C27.134 6 24 9.13401 24 13C24 16.866 27.134 20 31 20Z" fill="#2E9CCA"/>
    <path fill-rule="evenodd" clip-rule="evenodd" d="M31 7C27.6863 7 25 9.68629 25 13C25 16.3137 27.6863 19 31 19C34.3137 19 37 16.3137 37 13C37 9.68629 34.3137 7 31 7ZM23 13C23 8.58172 26.5817 5 31 5C35.4183 5 39 8.58172 39 13C39 17.4183 35.4183 21 31 21C26.5817 21 23 17.4183 23 13Z" fill="#AAABB8"/>
    <path d="M17 20C20.866 20 24 16.866 24 13C24 9.13401 20.866 6 17 6C13.134 6 10 9.13401 10 13C10 16.866 13.134 20 17 20Z" fill="#2E9CCA"/>
    <path fill-rule="evenodd" clip-rule="evenodd" d="M17 7C13.6863 7 11 9.68629 11 13C11 16.3137 13.6863 19 17 19C20.3137 19 23 16.3137 23 13C23 9.68629 20.3137 7 17 7ZM9 13C9 8.58172 12.5817 5 17 5C21.4183 5 25 8.58172 25 13C25 17.4183 21.4183 21 17 21C12.5817 21 9 17.4183 9 13Z" fill="#AAABB8"/>
    <path d="M40 24H11V33H40V24Z" fill="#29648A"/>
    <path fill-rule="evenodd" clip-rule="evenodd" d="M10 24C10 23.4477 10.4477 23 11 23H40C40.5523 23 41 23.4477 41 24V33C41 33.5523 40.5523 34 40 34H11C10.4477 34 10 33.5523 10 33V24ZM12 25V32H39V25H12Z" fill="#AAABB8"/>
    <path d="M33 33H17V42H33V33Z" fill="#464866"/>
    <path fill-rule="evenodd" clip-rule="evenodd" d="M16 33C16 32.4477 16.4477 32 17 32H33C33.5523 32 34 32.4477 34 33V42C34 42.5523 33.5523 43 33 43H17C16.4477 43 16 42.5523 16 42V33ZM18 34V41H32V34H18Z" fill="#AAABB8"/>
    <path fill-rule="evenodd" clip-rule="evenodd" d="M25 41C25.5523 41 26 41.4477 26 42V57C26 57.5523 25.5523 58 25 58C24.4477 58 24 57.5523 24 57V42C24 41.4477 24.4477 41 25 41Z" fill="#AAABB8"/>
    <path fill-rule="evenodd" clip-rule="evenodd" d="M24.7071 42.2929C25.0976 42.6834 25.0976 43.3166 24.7071 43.7071L11.1979 57.2164C10.8073 57.6069 10.1742 57.6069 9.78364 57.2164C9.39311 56.8258 9.39311 56.1927 9.78364 55.8022L23.2929 42.2929C23.6834 41.9024 24.3166 41.9024 24.7071 42.2929Z" fill="#AAABB8"/>
    <path fill-rule="evenodd" clip-rule="evenodd" d="M25.2929 42.2929C24.9024 42.6834 24.9024 43.3166 25.2929 43.7071L38.8021 57.2164C39.1927 57.6069 39.8258 57.6069 40.2164 57.2164C40.6069 56.8258 40.6069 56.1927 40.2164 55.8022L26.7071 42.2929C26.3166 41.9024 25.6834 41.9024 25.2929 42.2929Z" fill="#AAABB8"/>
</svg>

